# xmcd
#
# Track frame offsets:
#	150
#	10510
#	21926
#	31351
#	41099
#	55487
#	67071
#	78532
#	89340
#	98487
#	112581
#	122751
#	132627
#	145516
#	157999
#	167693
#	177921
#	188949
#	202057
#	211921
#
# Disc length: 2968 seconds
#
# Revision: 3
# Processed by: cddbd v1.5.2PL0 Copyright (c) Steve Scherf et al.
# Submitted via: EasyCDDAExtractor 10.0.2.1
#
DISCID=0f0b9614
DTITLE=Jim Reeves - The Essential Jim Reeves [CD2]
DYEAR=1995
DGENRE=Country
TTITLE0=Losing Your Love
TTITLE1=Adios Amigo
TTITLE2=I'm Gonna Change Everything
TTITLE3=Is this Me?
TTITLE4=Guilty
TTITLE5=Welcome to My World
TTITLE6=Love is No Excuse  (with Dottie West)
TTITLE7=I Guess I'm Crazy
TTITLE8=I Won't Forget You
TTITLE9=This is it
TTITLE10=Is it Really Over?
TTITLE11=Snow Flake
TTITLE12=Distant Drums
TTITLE13=Blue Side of Lonesome
TTITLE14=I Won't Come in While He's There
TTITLE15=I Heard A Heart Break Last Night
TTITLE16=That's When I See the Blues (in Your Pretty Brown Eyes)
TTITLE17=When You Are Gone
TTITLE18=When Two Worlds Collide
TTITLE19=Angels Don't Lie
EXTD=Jim Reeves Anthology - Disc 2 of 2\n2003 RCA Nashville - BMG Heritage
EXTT0=
EXTT1=
EXTT2=
EXTT3=
EXTT4=
EXTT5=
EXTT6=
EXTT7=
EXTT8=
EXTT9=
EXTT10=
EXTT11=
EXTT12=
EXTT13=
EXTT14=
EXTT15=
EXTT16=
EXTT17=
EXTT18=
EXTT19=
PLAYORDER=
